<?xml version="1.0" standalone="no"?>
<!DOCTYPE svg PUBLIC "-//W3C//DTD SVG 20010904//EN"
 "http://www.w3.org/TR/2001/REC-SVG-20010904/DTD/svg10.dtd">
<svg version="1.0" xmlns="http://www.w3.org/2000/svg"
 width="696.000000pt" height="696.000000pt" viewBox="0 0 696.000000 696.000000"
 preserveAspectRatio="xMidYMid meet">
<metadata>
Created by potrace 1.11, written by Peter Selinger 2001-2013
</metadata>
<g transform="translate(0.000000,696.000000) scale(0.100000,-0.100000)"
fill="#000000" stroke="none">
<path d="M1399 5662 c-3 -16 -5 -708 -2 -717 4 -12 4149 -12 4161 -1 4 4 7
167 7 362 1 269 -2 355 -11 358 -20 8 -4154 6 -4155 -2z"/>
<path d="M1407 4450 c-10 -4 -13 -85 -12 -365 l0 -360 2085 0 2085 0 0 363 c0
240 -3 362 -10 363 -42 4 -4139 3 -4148 -1z"/>
<path d="M1399 3236 c-4 -2 -5 -712 -2 -721 2 -7 701 -9 2076 -8 1139 1 2077
2 2082 2 7 1 11 122 10 364 l0 364 -2082 0 c-1146 0 -2084 -1 -2084 -1z"/>
<path d="M1413 2020 c-18 -5 -19 -24 -19 -367 l0 -361 2076 -1 c1141 0 2080 3
2086 7 11 7 15 721 4 723 -24 4 -4133 3 -4147 -1z"/>
</g>
</svg>
